<?xml version="1.0" encoding="UTF-8"?>
<svg version="1.1" xmlns="http://www.w3.org/2000/svg" width="2000" height="2000">
<path d="M0 0 C1.66634139 -0.00702656 3.33268253 -0.01411334 4.99902344 -0.02125549 C10.29362379 -0.04064019 15.58818023 -0.04568996 20.8828125 -0.046875 C21.78627663 -0.04731686 22.68974075 -0.04775871 23.62058258 -0.04821396 C51.85193107 -0.05544962 79.89768021 0.34317546 108.0078125 3.203125 C108.88479797 3.29033813 109.76178345 3.37755127 110.66534424 3.46740723 C194.62357824 11.84085881 277.56523614 30.27173819 495.0078125 126.203125 C496.12430176 126.85200684 497.24079102 127.50088867 498.39111328 128.16943359 C518.7971362 140.05993589 538.49972199 152.89801146 558.0078125 166.203125 C559.01618164 166.88922852 560.02455078 167.57533203 561.06347656 168.28222656 C574.04959345 177.14841784 586.58652272 186.56502878 599.0078125 196.203125 C599.70197266 196.74130859 600.39613281 197.27949219 601.11132812 197.83398438 C612.74098569 206.86888417 624.10176878 216.2133366 635.31201172 225.76171875 C637.01016096 227.20512116 638.71371443 228.64193923 640.41796875 230.078125 C648.47671988 236.89540209 656.22850078 243.9917452 663.90063477 251.23950195 C665.44408731 252.67780444 667.00127629 254.10140436 668.56616211 255.51635742 C676.68546576 262.86285242 684.47018962 270.51181743 692.20043945 278.26538086 C694.33105884 280.40139857 696.46702473 282.53196618 698.60351562 284.66210938 C699.984696 286.04395007 701.36556639 287.42610067 702.74609375 288.80859375 C703.37228104 289.43275681 703.99846832 290.05691986 704.64363098 290.69999695 C708.38378425 294.45975365 711.93928677 298.33272316 715.39692688 302.35412598 C718.13281449 305.49441941 721.01830508 308.49316172 723.8828125 311.515625 C728.69714577 316.63469499 733.28871261 321.84583386 737.67578125 327.33984375 C740.49785616 330.8048034 743.43721283 334.1557603 746.3828125 337.515625 C751.9931884 343.94380924 757.32250379 350.54195068 762.53173828 357.29736328 C764.12652729 359.35639785 765.73593541 361.4034139 767.34765625 363.44921875 C775.51635588 373.83964078 783.36361333 384.42191956 791.0078125 395.203125 C791.575 395.99976563 792.1421875 396.79640625 792.7265625 397.6171875 C816.46424687 430.99830614 837.76733487 466.05013451 857.0078125 502.203125 C857.55405273 503.22712402 858.10029297 504.25112305 858.66308594 505.30615234 C898.91074064 581.03740678 928.02245089 662.56105822 962.1953125 850.328125 C962.27421722 851.08543915 962.35312195 851.8427533 962.43441772 852.62301636 C965.44117256 881.83302818 966.38909216 910.98506646 966.32587051 940.32928848 C966.3202146 942.99934194 966.31740379 945.66938901 966.31478882 948.33944702 C966.27753084 974.53494756 965.86099353 1000.60258117 963.2578125 1026.68927002 C962.99871651 1029.29458901 962.75076027 1031.90081878 962.50390625 1034.50732422 C953.76141386 1125.56555164 931.81063589 1214.92928488 853.47851562 1392.546875 C852.00258271 1395.21257056 850.55561329 1397.89202541 849.1171875 1400.578125 C832.43551944 1431.68362326 813.45496061 1461.44783274 793.0078125 1490.203125 C792.41307129 1491.04020996 791.81833008 1491.87729492 791.20556641 1492.73974609 C784.33584888 1502.38432848 777.30718154 1511.87936677 770.0078125 1521.203125 C769.09240593 1522.37757144 768.17704268 1523.55205165 767.26171875 1524.7265625 C758.56776175 1535.85899476 749.60773562 1546.75480118 740.44921875 1557.50732422 C739.00581634 1559.20547346 737.56899827 1560.90902693 736.1328125 1562.61328125 C729.31494697 1570.67272798 722.21810529 1578.42532242 714.96948242 1586.09790039 C713.5375029 1587.63467194 712.12037358 1589.1853197 710.7121582 1590.74389648 C703.22716869 1599.02041184 695.41974309 1606.94454249 687.51831055 1614.82299805 C685.30986587 1617.0260461 683.10686699 1619.23443969 680.90429688 1621.44335938 C679.47688326 1622.87011265 678.04915973 1624.29655595 676.62109375 1625.72265625 C675.6520385 1626.69474785 675.6520385 1626.69474785 674.66340637 1627.68647766 C670.84310068 1631.48750272 666.91404814 1635.10735213 662.82775879 1638.62129211 C659.87226647 1641.19010141 657.04321621 1643.89145443 654.1953125 1646.578125 C649.15349607 1651.30059932 643.98416683 1655.7696465 638.58984375 1660.08984375 C635.96359482 1662.23931526 633.45147797 1664.47772588 630.9453125 1666.765625 C626.13290325 1671.1398557 621.12581375 1675.19390164 616.0078125 1679.203125 C615.01652344 1679.98945312 614.02523438 1680.77578125 613.00390625 1681.5859375 C605.95356594 1687.17193543 598.8356339 1692.67027541 591.6953125 1698.140625 C590.8911792 1698.76001953 590.0870459 1699.37941406 589.25854492 1700.01757812 C575.34214496 1710.64290989 560.83266456 1720.44892296 546.2578125 1730.140625 C545.47311584 1730.66292694 544.68841919 1731.18522888 543.87994385 1731.72335815 C531.73794664 1739.7982651 519.55324614 1747.76447126 507.0078125 1755.203125 C506.05986816 1755.76692871 505.11192383 1756.33073242 504.13525391 1756.91162109 C486.63956903 1767.27101892 468.78287377 1776.90852651 450.75146484 1786.29486084 C449.1755931 1787.1157285 447.60136873 1787.93975684 446.02734375 1788.76416016 C407.00189289 1809.12433607 365.66251804 1825.39928917 324.01715088 1839.52142334 C322.0670061 1840.18304258 320.11817569 1840.84842291 318.16943359 1841.51416016 C245.26850495 1866.26453413 168.99552218 1880.23620373 92.37890625 1886.44140625 C91.61056458 1886.50465591 90.8422229 1886.56790558 90.05059814 1886.6330719 C75.04829087 1887.80558157 60.06077511 1888.36661551 45.015625 1888.40625 C43.34928361 1888.41327656 41.68294247 1888.42036334 40.01660156 1888.42750549 C34.72200121 1888.44689019 29.42744477 1888.45193996 24.1328125 1888.453125 C22.77761631 1888.45378778 22.77761631 1888.45378778 21.39504242 1888.45446396 C-6.83630607 1888.46169962 -34.88205521 1888.06307454 -62.9921875 1885.203125 C-63.86917297 1885.11591187 -64.74615845 1885.02869873 -65.64971924 1884.93884277 C-149.60795324 1876.56539119 -232.54961114 1858.13451181 -449.9921875 1762.203125 C-451.10867676 1761.55424316 -452.22516602 1760.90536133 -453.37548828 1760.23681641 C-473.7815112 1748.34631411 -493.48409699 1735.50823854 -512.9921875 1722.203125 C-514.00055664 1721.51702148 -515.00892578 1720.83091797 -516.04785156 1720.12402344 C-529.03396845 1711.25783216 -541.57089772 1701.84122122 -553.9921875 1692.203125 C-554.68634766 1691.66494141 -555.38050781 1691.12675781 -556.09570312 1690.57226562 C-567.72536069 1681.53736583 -579.08614378 1672.1929134 -590.29638672 1662.64453125 C-591.99453596 1661.20112884 -593.69808943 1659.76431077 -595.40234375 1658.328125 C-603.46109488 1651.51084791 -611.21287578 1644.4145048 -618.88500977 1637.16674805 C-620.42846231 1635.72844556 -621.98565129 1634.30484564 -623.55053711 1632.88989258 C-631.66984076 1625.54339758 -639.45456462 1617.89443257 -647.18481445 1610.14086914 C-649.31543384 1608.00485143 -651.45139973 1605.87428382 -653.58789062 1603.74414062 C-654.969071 1602.36229993 -656.34994139 1600.98014933 -657.73046875 1599.59765625 C-658.35665604 1598.97349319 -658.98284332 1598.34933014 -659.62800598 1597.70625305 C-663.36815925 1593.94649635 -666.92366177 1590.07352684 -670.38130188 1586.05212402 C-673.11718949 1582.91183059 -676.00268008 1579.91308828 -678.8671875 1576.890625 C-683.68152077 1571.77155501 -688.27308761 1566.56041614 -692.66015625 1561.06640625 C-695.48223116 1557.6014466 -698.42158783 1554.2504897 -701.3671875 1550.890625 C-706.9775634 1544.46244076 -712.30687879 1537.86429932 -717.51611328 1531.10888672 C-719.11090229 1529.04985215 -720.72031041 1527.0028361 -722.33203125 1524.95703125 C-730.50073088 1514.56660922 -738.34798833 1503.98433044 -745.9921875 1493.203125 C-746.559375 1492.40648437 -747.1265625 1491.60984375 -747.7109375 1490.7890625 C-756.47173808 1478.46918669 -764.87188588 1465.9535466 -772.9921875 1453.203125 C-773.57581055 1452.29111328 -774.15943359 1451.37910156 -774.76074219 1450.43945312 C-816.51199689 1385.06430202 -849.32582998 1314.69077389 -921.31024551 948.07696152 C-921.3045896 945.40690806 -921.30177879 942.73686099 -921.29916382 940.06680298 C-921.26190584 913.87130244 -920.84536853 887.80366883 -918.2421875 861.71697998 C-917.98309151 859.11166099 -917.73513527 856.50543122 -917.48828125 853.89892578 C-908.74578886 762.84069836 -886.79501089 673.47696512 -808.46289062 495.859375 C-806.98695771 493.19367944 -805.53998829 490.51422459 -804.1015625 487.828125 C-787.41989444 456.72262674 -768.43933561 426.95841726 -747.9921875 398.203125 C-747.39744629 397.36604004 -746.80270508 396.52895508 -746.18994141 395.66650391 C-739.32022388 386.02192152 -732.29155654 376.52688323 -724.9921875 367.203125 C-724.07678093 366.02867856 -723.16141768 364.85419835 -722.24609375 363.6796875 C-713.55213675 352.54725524 -704.59211062 341.65144882 -695.43359375 330.89892578 C-693.99019134 329.20077654 -692.55337327 327.49722307 -691.1171875 325.79296875 C-684.29932197 317.73352202 -677.20248029 309.98092758 -669.95385742 302.30834961 C-668.5218779 300.77157806 -667.10474858 299.2209303 -665.6965332 297.66235352 C-658.21154369 289.38583816 -650.40411809 281.46170751 -642.50268555 273.58325195 C-640.29424087 271.3802039 -638.09124199 269.17181031 -635.88867188 266.96289062 C-634.46125826 265.53613735 -633.03353473 264.10969405 -631.60546875 262.68359375 C-630.95943192 262.03553268 -630.31339508 261.38747162 -629.64778137 260.71977234 C-625.82747568 256.91874728 -621.89842314 253.29889787 -617.81213379 249.78495789 C-614.85664147 247.21614859 -612.02759121 244.51479557 -609.1796875 241.828125 C-604.13787107 237.10565068 -598.96854183 232.6366035 -593.57421875 228.31640625 C-590.94796982 226.16693474 -588.43585297 223.92852412 -585.9296875 221.640625 C-581.11727825 217.2663943 -576.11018875 213.21234836 -570.9921875 209.203125 C-570.00089844 208.41679687 -569.00960938 207.63046875 -567.98828125 206.8203125 C-560.93794094 201.23431457 -553.8200089 195.73597459 -546.6796875 190.265625 C-545.8755542 189.64623047 -545.0714209 189.02683594 -544.24291992 188.38867188 C-530.32651996 177.76334011 -515.81703956 167.95732704 -501.2421875 158.265625 C-500.45749084 157.74332306 -499.67279419 157.22102112 -498.86431885 156.68289185 C-486.72232164 148.6079849 -474.53762114 140.64177874 -461.9921875 133.203125 C-461.04424316 132.63932129 -460.09629883 132.07551758 -459.11962891 131.49462891 C-441.62394403 121.13523108 -423.76724877 111.49772349 -405.73583984 102.11138916 C-404.1599681 101.2905215 -402.58574373 100.46649316 -401.01171875 99.64208984 C-328.54564575 61.83542876 -248.68182902 35.43262906 -159.9921875 17.203125 C-158.96786621 16.99716705 -158.96786621 16.99716705 -157.92285156 16.78704834 C-125.05253934 10.19656656 -91.82268576 5.76600663 -58.4296875 2.890625 C-57.48558014 2.80931335 -56.54147278 2.72800171 -55.5687561 2.64422607 C-52.8340307 2.41209147 -50.09886915 2.18656856 -47.36328125 1.96484375 C-46.59488922 1.90158401 -45.82649719 1.83832428 -45.03482056 1.77314758 C-30.03254928 0.60075885 -15.04510794 0.03963438 0 0 Z " fill="#FEFEFE" transform="translate(974.9921875,60.796875)"/>
<path d="M0 0 C1.66634139 -0.00702656 3.33268253 -0.01411334 4.99902344 -0.02125549 C10.29362379 -0.04064019 15.58818023 -0.04568996 20.8828125 -0.046875 C21.78627663 -0.04731686 22.68974075 -0.04775871 23.62058258 -0.04821396 C51.85193107 -0.05544962 79.89768021 0.34317546 108.0078125 3.203125 C108.88479797 3.29033813 109.76178345 3.37755127 110.66534424 3.46740723 C194.62357824 11.84085881 277.56523614 30.27173819 495.0078125 126.203125 C496.12430176 126.85200684 497.24079102 127.50088867 498.39111328 128.16943359 C518.7971362 140.05993589 538.49972199 152.89801146 558.0078125 166.203125 C559.01618164 166.88922852 560.02455078 167.57533203 561.06347656 168.28222656 C574.04959345 177.14841784 586.58652272 186.56502878 599.0078125 196.203125 C599.70197266 196.74130859 600.39613281 197.27949219 601.11132812 197.83398438 C612.74098569 206.86888417 624.10176878 216.2133366 635.31201172 225.76171875 C637.01016096 227.20512116 638.71371443 228.64193923 640.41796875 230.078125 C648.47671988 236.89540209 656.22850078 243.9917452 663.90063477 251.23950195 C665.44408731 252.67780444 667.00127629 254.10140436 668.56616211 255.51635742 C676.68546576 262.86285242 684.47018962 270.51181743 692.20043945 278.26538086 C694.33105884 280.40139857 696.46702473 282.53196618 698.60351562 284.66210938 C699.984696 286.04395007 701.36556639 287.42610067 702.74609375 288.80859375 C703.37228104 289.43275681 703.99846832 290.05691986 704.64363098 290.69999695 C708.38378425 294.45975365 711.93928677 298.33272316 715.39692688 302.35412598 C718.13281449 305.49441941 721.01830508 308.49316172 723.8828125 311.515625 C728.69714577 316.63469499 733.28871261 321.84583386 737.67578125 327.33984375 C740.49785616 330.8048034 743.43721283 334.1557603 746.3828125 337.515625 C751.9931884 343.94380924 757.32250379 350.54195068 762.53173828 357.29736328 C764.12652729 359.35639785 765.73593541 361.4034139 767.34765625 363.44921875 C775.51635588 373.83964078 783.36361333 384.42191956 791.0078125 395.203125 C791.575 395.99976563 792.1421875 396.79640625 792.7265625 397.6171875 C816.46424687 430.99830614 837.76733487 466.05013451 857.0078125 502.203125 C857.55405273 503.22712402 858.10029297 504.25112305 858.66308594 505.30615234 C898.91074064 581.03740678 928.02245089 662.56105822 962.1953125 850.328125 C962.27421722 851.08543915 962.35312195 851.8427533 962.43441772 852.62301636 C965.44117256 881.83302818 966.38909216 910.98506646 966.32587051 940.32928848 C966.3202146 942.99934194 966.31740379 945.66938901 966.31478882 948.33944702 C966.27753084 974.53494756 965.86099353 1000.60258117 963.2578125 1026.68927002 C962.99871651 1029.29458901 962.75076027 1031.90081878 962.50390625 1034.50732422 C953.76141386 1125.56555164 931.81063589 1214.92928488 853.47851562 1392.546875 C852.00258271 1395.21257056 850.55561329 1397.89202541 849.1171875 1400.578125 C832.43551944 1431.68362326 813.45496061 1461.44783274 793.0078125 1490.203125 C792.41307129 1491.04020996 791.81833008 1491.87729492 791.20556641 1492.73974609 C784.33584888 1502.38432848 777.30718154 1511.87936677 770.0078125 1521.203125 C769.09240593 1522.37757144 768.17704268 1523.55205165 767.26171875 1524.7265625 C758.56776175 1535.85899476 749.60773562 1546.75480118 740.44921875 1557.50732422 C739.00581634 1559.20547346 737.56899827 1560.90902693 736.1328125 1562.61328125 C729.31494697 1570.67272798 722.21810529 1578.42532242 714.96948242 1586.09790039 C713.5375029 1587.63467194 712.12037358 1589.1853197 710.7121582 1590.74389648 C703.22716869 1599.02041184 695.41974309 1606.94454249 687.51831055 1614.82299805 C685.30986587 1617.0260461 683.10686699 1619.23443969 680.90429688 1621.44335938 C679.47688326 1622.87011265 678.04915973 1624.29655595 676.62109375 1625.72265625 C675.6520385 1626.69474785 675.6520385 1626.69474785 674.66340637 1627.68647766 C670.84310068 1631.48750272 666.91404814 1635.10735213 662.82775879 1638.62129211 C659.87226647 1641.19010141 657.04321621 1643.89145443 654.1953125 1646.578125 C649.15349607 1651.30059932 643.98416683 1655.7696465 638.58984375 1660.08984375 C635.96359482 1662.23931526 633.45147797 1664.47772588 630.9453125 1666.765625 C626.13290325 1671.1398557 621.12581375 1675.19390164 616.0078125 1679.203125 C615.01652344 1679.98945312 614.02523438 1680.77578125 613.00390625 1681.5859375 C605.95356594 1687.17193543 598.8356339 1692.67027541 591.6953125 1698.140625 C590.8911792 1698.76001953 590.0870459 1699.37941406 589.25854492 1700.01757812 C575.34214496 1710.64290989 560.83266456 1720.44892296 546.2578125 1730.140625 C545.47311584 1730.66292694 544.68841919 1731.18522888 543.87994385 1731.72335815 C531.73794664 1739.7982651 519.55324614 1747.76447126 507.0078125 1755.203125 C506.05986816 1755.76692871 505.11192383 1756.33073242 504.13525391 1756.91162109 C486.63956903 1767.27101892 468.78287377 1776.90852651 450.75146484 1786.29486084 C449.1755931 1787.1157285 447.60136873 1787.93975684 446.02734375 1788.76416016 C407.00189289 1809.12433607 365.66251804 1825.39928917 324.01715088 1839.52142334 C322.0670061 1840.18304258 320.11817569 1840.84842291 318.16943359 1841.51416016 C245.26850495 1866.26453413 168.99552218 1880.23620373 92.37890625 1886.44140625 C91.61056458 1886.50465591 90.8422229 1886.56790558 90.05059814 1886.6330719 C75.04829087 1887.80558157 60.06077511 1888.36661551 45.015625 1888.40625 C43.34928361 1888.41327656 41.68294247 1888.42036334 40.01660156 1888.42750549 C34.72200121 1888.44689019 29.42744477 1888.45193996 24.1328125 1888.453125 C22.77761631 1888.45378778 22.77761631 1888.45378778 21.39504242 1888.45446396 C-6.83630607 1888.46169962 -34.88205521 1888.06307454 -62.9921875 1885.203125 C-63.86917297 1885.11591187 -64.74615845 1885.02869873 -65.64971924 1884.93884277 C-149.60795324 1876.56539119 -232.54961114 1858.13451181 -449.9921875 1762.203125 C-451.10867676 1761.55424316 -452.22516602 1760.90536133 -453.37548828 1760.23681641 C-473.7815112 1748.34631411 -493.48409699 1735.50823854 -512.9921875 1722.203125 C-514.00055664 1721.51702148 -515.00892578 1720.83091797 -516.04785156 1720.12402344 C-529.03396845 1711.25783216 -541.57089772 1701.84122122 -553.9921875 1692.203125 C-554.68634766 1691.66494141 -555.38050781 1691.12675781 -556.09570312 1690.57226562 C-567.72536069 1681.53736583 -579.08614378 1672.1929134 -590.29638672 1662.64453125 C-591.99453596 1661.20112884 -593.69808943 1659.76431077 -595.40234375 1658.328125 C-603.46109488 1651.51084791 -611.21287578 1644.4145048 -618.88500977 1637.16674805 C-620.42846231 1635.72844556 -621.98565129 1634.30484564 -623.55053711 1632.88989258 C-631.66984076 1625.54339758 -639.45456462 1617.89443257 -647.18481445 1610.14086914 C-649.31543384 1608.00485143 -651.45139973 1605.87428382 -653.58789062 1603.74414062 C-654.969071 1602.36229993 -656.34994139 1600.98014933 -657.73046875 1599.59765625 C-658.35665604 1598.97349319 -658.98284332 1598.34933014 -659.62800598 1597.70625305 C-663.36815925 1593.94649635 -666.92366177 1590.07352684 -670.38130188 1586.05212402 C-673.11718949 1582.91183059 -676.00268008 1579.91308828 -678.8671875 1576.890625 C-683.68152077 1571.77155501 -688.27308761 1566.56041614 -692.66015625 1561.06640625 C-695.48223116 1557.6014466 -698.42158783 1554.2504897 -701.3671875 1550.890625 C-706.9775634 1544.46244076 -712.30687879 1537.86429932 -717.51611328 1531.10888672 C-719.11090229 1529.04985215 -720.72031041 1527.0028361 -722.33203125 1524.95703125 C-730.50073088 1514.56660922 -738.34798833 1503.98433044 -745.9921875 1493.203125 C-746.559375 1492.40648437 -747.1265625 1491.60984375 -747.7109375 1490.7890625 C-756.47173808 1478.46918669 -764.87188588 1465.9535466 -772.9921875 1453.203125 C-773.57581055 1452.29111328 -774.15943359 1451.37910156 -774.76074219 1450.43945312 C-816.51199689 1385.06430202 -849.32582998 1314.69077389 -921.31024551 948.07696152 C-921.3045896 945.40690806 -921.30177879 942.73686099 -921.29916382 940.06680298 C-921.26190584 913.87130244 -920.84536853 887.80366883 -918.2421875 861.71697998 C-917.98309151 859.11166099 -917.73513527 856.50543122 -917.48828125 853.89892578 C-908.74578886 762.84069836 -886.79501089 673.47696512 -808.46289062 495.859375 C-806.98695771 493.19367944 -805.53998829 490.51422459 -804.1015625 487.828125 C-787.41989444 456.72262674 -768.43933561 426.95841726 -747.9921875 398.203125 C-747.39744629 397.36604004 -746.80270508 396.52895508 -746.18994141 395.66650391 C-739.32022388 386.02192152 -732.29155654 376.52688323 -724.9921875 367.203125 C-724.07678093 366.02867856 -723.16141768 364.85419835 -722.24609375 363.6796875 C-713.55213675 352.54725524 -704.59211062 341.65144882 -695.43359375 330.89892578 C-693.99019134 329.20077654 -692.55337327 327.49722307 -691.1171875 325.79296875 C-684.29932197 317.73352202 -677.20248029 309.98092758 -669.95385742 302.30834961 C-668.5218779 300.77157806 -667.10474858 299.2209303 -665.6965332 297.66235352 C-658.21154369 289.38583816 -650.40411809 281.46170751 -642.50268555 273.58325195 C-640.29424087 271.3802039 -638.09124199 269.17181031 -635.88867188 266.96289062 C-634.46125826 265.53613735 -633.03353473 264.10969405 -631.60546875 262.68359375 C-630.95943192 262.03553268 -630.31339508 261.38747162 -629.64778137 260.71977234 C-625.82747568 256.91874728 -621.89842314 253.29889787 -617.81213379 249.78495789 C-614.85664147 247.21614859 -612.02759121 244.51479557 -609.1796875 241.828125 C-604.13787107 237.10565068 -598.96854183 232.6366035 -593.57421875 228.31640625 C-590.94796982 226.16693474 -588.43585297 223.92852412 -585.9296875 221.640625 C-581.11727825 217.2663943 -576.11018875 213.21234836 -570.9921875 209.203125 C-570.00089844 208.41679687 -569.00960938 207.63046875 -567.98828125 206.8203125 C-560.93794094 201.23431457 -553.8200089 195.73597459 -546.6796875 190.265625 C-545.8755542 189.64623047 -545.0714209 189.02683594 -544.24291992 188.38867188 C-530.32651996 177.76334011 -515.81703956 167.95732704 -501.2421875 158.265625 C-500.45749084 157.74332306 -499.67279419 157.22102112 -498.86431885 156.68289185 C-486.72232164 148.6079849 -474.53762114 140.64177874 -461.9921875 133.203125 C-461.04424316 132.63932129 -460.09629883 132.07551758 -459.11962891 131.49462891 C-441.62394403 121.13523108 -423.76724877 111.49772349 -405.73583984 102.11138916 C-404.1599681 101.2905215 -402.58574373 100.46649316 -401.01171875 99.64208984 C-328.54564575 61.83542876 -248.68182902 35.43262906 -159.9921875 17.203125 C-158.96786621 16.99716705 -158.96786621 16.99716705 -157.92285156 16.78704834 C-125.05253934 10.19656656 -91.82268576 5.76600663 -58.4296875 2.890625 C-57.48558014 2.80931335 -56.54147278 2.72800171 -55.5687561 2.64422607 C-52.8340307 2.41209147 -50.09886915 2.18656856 -47.36328125 1.96484375 C-46.59488922 1.90158401 -45.82649719 1.83832428 -45.03482056 1.77314758 C-30.03254928 0.60075885 -15.04510794 0.03963438 0 0 Z M-479.9921875 328.015625 C-480.67230896 328.10271729 -481.35243042 328.18980957 -482.05316162 328.27954102 C-516.29704302 332.68162734 -552.60317962 341.49470487 -580.9921875 362.203125 C-580.9921875 362.863125 -580.9921875 363.523125 -580.9921875 364.203125 C-581.86037109 364.59564453 -581.86037109 364.59564453 -582.74609375 364.99609375 C-585.12789381 366.27605239 -586.91535396 367.71668554 -588.9296875 369.515625 C-589.57808594 370.08925781 -590.22648437 370.66289062 -590.89453125 371.25390625 C-611.1655009 390.09043112 -622.62703689 413.53177052 -624.16706753 441.36360203 C-624.44765697 449.9181448 -624.44364232 458.47557823 -624.43960378 467.03373814 C-624.44102767 470.96794793 -624.45968574 474.90208522 -624.4759922 478.83625633 C-624.5055454 486.62077517 -624.51917725 494.40524648 -624.52773901 502.1898135 C-624.53872512 511.52212551 -624.56686683 520.85436716 -624.59504931 530.18664025 C-624.66217834 552.73548415 -624.69830915 575.2843455 -624.72881899 597.83326407 C-624.74333571 608.51066532 -624.76061621 619.18806164 -624.77786173 629.86545877 C-624.83656609 666.45120676 -624.88582382 703.03695807 -624.91213989 739.62274456 C-624.91887121 748.82995803 -624.92568535 758.03717144 -624.93261719 767.24438477 C-624.9334684 768.38817664 -624.93431961 769.53196852 -624.93519661 770.71042076 C-624.96312854 807.78217079 -625.04092923 844.8535892 -625.1476506 881.9251903 C-625.25729671 920.08272151 -625.32473189 958.24007893 -625.3363584 996.39777285 C-625.33800323 1001.79399384 -625.34008395 1007.19021458 -625.34240723 1012.58643532 C-625.34284422 1013.64833114 -625.34328122 1014.71022697 -625.34373146 1015.80430145 C-625.3518865 1032.8442539 -625.4033855 1049.8838075 -625.47088756 1066.92361646 C-625.5377576 1084.07143674 -625.55613636 1101.21878833 -625.526245 1118.36671706 C-625.5099162 1128.53465373 -625.52911077 1138.70101126 -625.60114518 1148.86871403 C-625.64577995 1155.68401137 -625.64200033 1162.49823934 -625.60097358 1169.31355479 C-625.57899958 1173.18212779 -625.57599217 1177.04771086 -625.63270521 1180.91599878 C-625.92209889 1201.93277819 -621.97479686 1217.56095386 -612.52363324 1236.17570696 C-610.80764805 1239.56792934 -609.22288657 1243.00472093 -607.66995275 1246.47378651 C-595.47041531 1273.4996527 -579.99630414 1299.30505656 -563.9921875 1324.203125 C-563.59338379 1324.82429199 -563.19458008 1325.44545898 -562.78369141 1326.08544922 C-560.5787662 1329.49976484 -558.30097188 1332.85834763 -555.9921875 1336.203125 C-555.50459961 1336.9132373 -555.01701172 1337.62334961 -554.51464844 1338.35498047 C-546.80970992 1349.55782471 -538.87376737 1360.53454598 -530.51074219 1371.25537109 C-529.05299114 1373.12513603 -527.60385168 1375.00127874 -526.15625 1376.87890625 C-517.63294335 1387.88659839 -508.59718071 1398.43516838 -499.22265625 1408.7265625 C-497.35877836 1410.79608716 -495.52578362 1412.88601332 -493.69921875 1414.98828125 C-490.05068669 1419.16470466 -486.29629539 1423.23087884 -482.4921875 1427.265625 C-481.80511719 1427.99442871 -481.11804688 1428.72323242 -480.41015625 1429.47412109 C-467.26619718 1443.42217777 -467.26619718 1443.42217777 -453.1328125 1456.34375 C-450.70076917 1458.45625479 -448.35919749 1460.65182372 -446.01171875 1462.85742188 C-434.2159367 1473.93927344 -434.2159367 1473.93927344 -420.9921875 1483.203125 C-420.9921875 1201.713125 -420.9921875 920.223125 -420.9921875 630.203125 C-396.9021875 630.203125 -372.8121875 630.203125 -347.9921875 630.203125 C-348.05658524 641.52833969 -348.12098297 652.85355438 -348.18733215 664.5219574 C-348.2300294 672.2058647 -348.27259294 679.8897722 -348.31433105 687.57368469 C-348.31975393 688.57185984 -348.32517681 689.57003498 -348.33076402 690.59845786 C-348.68933124 756.69710445 -349.01331743 822.79571931 -349.22013855 888.89503479 C-349.2241422 890.17131977 -349.22814586 891.44760475 -349.23227084 892.76256503 C-349.31695171 919.82427664 -349.3958177 946.88600278 -349.46769817 973.94775124 C-349.50381388 987.54229018 -349.54107808 1001.13682578 -349.57942831 1014.7313586 C-349.58520653 1016.78200919 -349.59095196 1018.83265987 -349.59669603 1020.88331056 C-349.68540852 1052.45081029 -349.79871192 1084.01798564 -349.98345947 1115.58508301 C-349.98742954 1116.26351367 -349.9913996 1116.94194433 -349.99548997 1117.64093349 C-350.05964668 1128.57885665 -350.12587214 1139.51676728 -350.19237227 1150.4546764 C-350.47058049 1196.22176964 -350.65598442 1241.98819789 -350.71572221 1287.75621322 C-350.72407868 1294.1245209 -350.73352214 1300.49282654 -350.74362755 1306.86113167 C-350.74558282 1308.11450296 -350.74753808 1309.36787426 -350.7495526 1310.6592265 C-350.78382091 1330.83411796 -350.91831444 1351.00715565 -351.09031648 1371.18129116 C-351.26110812 1391.46444262 -351.32624639 1411.74575693 -351.28372744 1432.02960222 C-351.26166986 1444.08185741 -351.32042012 1456.12738862 -351.49531625 1468.1784288 C-351.60422795 1476.23341989 -351.60734693 1484.28401963 -351.52531009 1492.33931639 C-351.48156379 1496.92992197 -351.48297936 1501.5078522 -351.61379979 1506.09708469 C-352.68730904 1523.29436778 -352.68730904 1523.29436778 -346.70620808 1538.78798931 C-340.01727733 1545.34219384 -331.31844058 1549.08325141 -322.76905366 1552.58122707 C-316.67323223 1555.11257109 -311.02791046 1558.49787201 -305.3046875 1561.765625 C-235.37444015 1599.75949256 -157.86617256 1624.1118304 217.77880859 1615.48193359 C231.30835838 1611.42571617 244.67491273 1606.85875871 258.0078125 1602.203125 C259.83650879 1601.56721436 259.83650879 1601.56721436 261.70214844 1600.91845703 C280.56045735 1594.30445301 298.80737065 1586.42301397 317.0078125 1578.203125 C317.91837402 1577.79288086 318.82893555 1577.38263672 319.76708984 1576.95996094 C348.34139879 1564.01378605 375.64787929 1548.14690708 402.0078125 1531.203125 C402.62897949 1530.80432129 403.25014648 1530.40551758 403.89013672 1529.99462891 C407.30445234 1527.7897037 410.66303513 1525.51190938 414.0078125 1523.203125 C414.7179248 1522.71553711 415.42803711 1522.22794922 416.15966797 1521.72558594 C427.36251221 1514.02064742 438.33923348 1506.08470487 449.06005859 1497.72167969 C450.92982353 1496.26392864 452.80596624 1494.81478918 454.68359375 1493.3671875 C465.69128589 1484.84388085 476.23985588 1475.80811821 486.53125 1466.43359375 C488.60077466 1464.56971586 490.69070082 1462.73672112 492.79296875 1460.91015625 C496.96939216 1457.26162419 501.03556634 1453.50723289 505.0703125 1449.703125 C505.79911621 1449.01605469 506.52791992 1448.32898437 507.27880859 1447.62109375 C521.22686527 1434.47713468 521.22686527 1434.47713468 534.1484375 1420.34375 C536.26033661 1417.91240397 538.45527408 1415.57149215 540.66015625 1413.22460938 C545.92166185 1407.6230745 550.9851798 1401.95016588 555.7890625 1395.9453125 C557.74279089 1393.53066932 559.74977152 1391.17427108 561.78417969 1388.82763672 C569.69211937 1379.66851324 576.84096734 1369.94564386 584.0078125 1360.203125 C584.57290527 1359.43806641 585.13799805 1358.67300781 585.72021484 1357.88476562 C632.38209185 1294.59656157 666.61250068 1224.52052166 690.36328125 1149.76171875 C690.58766876 1149.05788055 690.81205627 1148.35404236 691.04324341 1147.62887573 C691.47246747 1146.26362978 691.89020909 1144.89471108 692.29536909 1143.52213132 C692.74713986 1142.05161554 693.23745185 1140.5919588 693.77853543 1139.15190947 C697.16965545 1129.09380118 696.42670297 1118.49848483 696.39549255 1108.02279663 C696.3996678 1105.74694958 696.40514637 1103.47110462 696.41181237 1101.1952635 C696.42626004 1094.9551831 696.42202432 1088.71523486 696.41464555 1082.47514725 C696.41040084 1076.43238318 696.4202271 1070.38965184 696.42955317 1064.3468975 C696.44919988 1051.22900231 696.45157146 1038.11114667 696.44635797 1024.99324028 C696.44179832 1013.51470023 696.4424031 1002.03617581 696.44819832 990.55763626 C696.44895519 989.01709571 696.44971117 987.47655515 696.45046626 985.9360146 C696.45161147 983.6145029 696.45276135 981.2929912 696.45392551 978.97147951 C696.46462711 957.39483592 696.46935904 935.81819753 696.46145535 914.24155235 C696.46115817 913.42854949 696.460861 912.61554663 696.46055482 911.77790732 C696.45810595 905.17598467 696.45549433 898.57406209 696.45287069 891.97213951 C696.44276474 866.21154482 696.45113164 840.45101529 696.47436523 814.69042969 C696.50043344 785.74017946 696.5132873 756.78996846 696.50617748 727.83970606 C696.50546143 724.75346479 696.50478704 721.6672235 696.50413704 718.58098221 C696.50388233 717.4411358 696.50388233 717.4411358 696.50362247 716.2782622 C696.5013192 704.80597031 696.50929757 693.33371484 696.52242851 681.86143112 C696.53733155 668.81773742 696.53819366 655.77412912 696.5203576 642.73043726 C696.51163055 636.07417795 696.50975267 629.41804631 696.52500916 622.76178551 C696.53879911 616.67005405 696.5341663 610.57862643 696.51476992 604.4869128 C696.51099218 602.28184797 696.5139826 600.07675913 696.52438157 597.87171559 C696.53750709 594.87577675 696.52600713 591.88089345 696.50838375 588.88500023 C696.51803426 588.02779334 696.52768477 587.17058644 696.53762773 586.28740358 C696.43124191 577.48661476 693.11756173 570.47365711 687.0078125 564.203125 C686.3478125 564.203125 685.6878125 564.203125 685.0078125 564.203125 C685.0078125 563.543125 685.0078125 562.883125 685.0078125 562.203125 C682.86843386 560.62001083 682.86843386 560.62001083 680.1328125 559.015625 C674.60951703 555.59980975 669.3009714 551.96227925 664.0078125 548.203125 C662.40463801 547.07671155 660.80045852 545.95172722 659.1953125 544.828125 C658.37417969 544.25320313 657.55304688 543.67828125 656.70703125 543.0859375 C653.64590435 540.95067966 650.57757408 538.82593711 647.5078125 536.703125 C641.18216352 532.3287904 634.87273286 527.93167136 628.58984375 523.49609375 C624.10227634 520.33553356 619.58122509 517.23842057 615.0078125 514.203125 C609.61185785 510.62192236 604.298594 506.93729394 599.0078125 503.203125 C597.34163674 502.03575735 595.67496701 500.86909443 594.0078125 499.703125 C591.4594476 497.92007095 588.91198905 496.13579343 586.3671875 494.34765625 C583.91753837 492.62776786 581.46384623 490.91387953 579.0078125 489.203125 C578.38390625 488.76484375 577.76 488.3265625 577.1171875 487.875 C574.32324602 485.80776765 574.32324602 485.80776765 571.0078125 485.203125 C571.0078125 484.543125 571.0078125 483.883125 571.0078125 483.203125 C569.07165715 481.75536815 569.07165715 481.75536815 566.5078125 480.265625 C561.55763174 477.20609393 556.7331267 474.01090515 551.9453125 470.703125 C551.26194824 470.23229492 550.57858398 469.76146484 549.87451172 469.27636719 C545.15594399 466.0174188 540.47382876 462.70988592 535.828125 459.34765625 C534.08399538 458.02569728 534.08399538 458.02569728 532.0078125 458.203125 C532.0078125 457.543125 532.0078125 456.883125 532.0078125 456.203125 C529.86843386 454.62001083 529.86843386 454.62001083 527.1328125 453.015625 C522.60394694 450.21313767 518.21632182 447.29575361 513.87109375 444.21875 C510.27016554 441.68385375 506.63952163 439.19363241 503.0078125 436.703125 C496.25823653 432.07018722 489.53792529 427.39796042 482.84765625 422.6796875 C476.26167459 418.04803659 469.61424828 413.50805885 462.96582031 408.96679688 C458.15238986 405.6768921 453.35723052 402.36418637 448.58984375 399.0078125 C444.3855347 396.06924853 440.15270428 393.17210867 435.9206543 390.27368164 C431.1803896 387.02355386 426.48435778 383.71750608 421.828125 380.34765625 C420.08399538 379.02569728 420.08399538 379.02569728 418.0078125 379.203125 C418.0078125 378.543125 418.0078125 377.883125 418.0078125 377.203125 C416.07165715 375.75536815 416.07165715 375.75536815 413.5078125 374.265625 C408.58413791 371.22005309 403.77501919 368.05080437 399.0078125 364.765625 C398.3176001 364.29084717 397.6273877 363.81606934 396.91625977 363.3269043 C393.03808797 360.64604511 389.22347521 357.89907808 385.4453125 355.078125 C379.48820347 350.69816284 373.17515653 346.94465271 366.78588867 343.23657227 C365.60425787 342.54978891 364.42725226 341.85498295 363.25512695 341.15209961 C359.21140002 338.76074562 355.09533491 336.88066051 350.6953125 335.265625 C350.01090088 335.01329102 349.32648926 334.76095703 348.62133789 334.50097656 C343.4484664 332.63736324 338.22912848 330.97254498 332.9453125 329.453125 C332.2752417 329.25468994 331.6051709 329.05625488 330.91479492 328.85180664 C314.56520296 324.33911071 297.79270741 324.91636417 280.98862386 324.95239125 C277.13833989 324.95840823 273.28806932 324.95271912 269.43778533 324.94857043 C262.70024857 324.94290437 255.9627456 324.94461759 249.22521019 324.9512558 C239.20579012 324.96110011 229.18639462 324.95943414 219.16697166 324.9555055 C202.3048549 324.94923778 185.44275215 324.95239378 168.58063698 324.96109962 C151.87721438 324.96972148 135.17379808 324.97461961 118.47037315 324.97443199 C116.91039485 324.97442052 116.91039485 324.97442052 115.31890183 324.97440882 C111.09700503 324.97436791 106.87510823 324.9743023 102.65321142 324.97420301 C63.05825963 324.97329722 23.46331741 324.98323673 -16.13163105 324.99863268 C-51.28477692 325.01225118 -86.43791598 325.01849414 -121.59106445 325.01782227 C-123.84758845 325.01778185 -126.10411244 325.01774149 -128.36063644 325.01770119 C-129.47623458 325.01768084 -130.59183272 325.01766048 -131.74123687 325.01763952 C-137.35739689 325.01753872 -142.9735569 325.01744814 -148.58971691 325.01736927 C-149.69777582 325.01735256 -150.80583472 325.01733584 -151.94747117 325.01731862 C-181.34453376 325.0169531 -210.74159551 325.02149598 -240.13865739 325.02769583 C-241.18498098 325.02791611 -242.23130458 325.02813638 -243.30933495 325.02836332 C-247.51656393 325.02925152 -251.72379291 325.03013994 -255.93102189 325.03105428 C-270.54606743 325.03420934 -285.1611123 325.03572291 -299.77615816 325.03616577 C-318.61767834 325.03676392 -337.45919291 325.04077894 -356.3007107 325.05059723 C-366.25684645 325.05569638 -376.21297399 325.05812692 -386.16911098 325.05660104 C-392.83058921 325.05586298 -399.4920595 325.05879723 -406.15353518 325.06464485 C-409.94160302 325.06787344 -413.72965375 325.06960672 -417.51772239 325.06688426 C-438.46655724 325.05335793 -459.19647961 325.30325519 -479.9921875 328.015625 Z " fill="#6200B2" transform="translate(974.9921875,60.796875)"/>
<path d="M0 0 C3.82164758 -0.00017141 7.6432873 -0.00609861 11.46493083 -0.01124086 C19.0253502 -0.02051104 26.58576373 -0.02447938 34.14618807 -0.02675983 C43.20966972 -0.02973635 52.27314373 -0.0384418 61.33662134 -0.04717411 C83.2305781 -0.06795495 105.12453615 -0.07847623 127.01850046 -0.08730372 C137.38100227 -0.09151726 147.74350351 -0.09673811 158.10600484 -0.10198824 C193.59974951 -0.11986832 229.09349435 -0.13486511 264.58724284 -0.14230844 C266.81267762 -0.14278319 269.0381124 -0.14325907 271.26354718 -0.1437361 C272.91889212 -0.14409066 272.91889212 -0.14409066 274.60767837 -0.14445239 C280.19846715 -0.14565353 285.78925592 -0.146869 291.3800447 -0.14809438 C292.48952946 -0.14833453 293.59901422 -0.14857468 294.74211973 -0.1488221 C330.73355927 -0.15671925 366.72496591 -0.18016483 402.71639108 -0.21265032 C440.7988275 -0.24696026 478.88124465 -0.26666035 516.96369678 -0.26995268 C521.14503682 -0.2703702 525.32637686 -0.27084976 529.50771689 -0.27137586 C530.53722618 -0.27149905 531.56673547 -0.27162224 532.62744201 -0.27174916 C549.17864905 -0.274079 565.72981773 -0.28972604 582.28101111 -0.3102177 C598.91770108 -0.33048851 615.55434507 -0.33594692 632.1910451 -0.32644707 C642.06768351 -0.32123806 651.94416864 -0.32708144 661.82078495 -0.34898174 C668.42664259 -0.36251985 675.03239507 -0.36138634 681.63825384 -0.34857978 C685.39624194 -0.34170345 689.15393763 -0.34094317 692.91189926 -0.35813987 C711.46555393 -0.43784075 729.36653839 -0.23446813 746.43351149 7.95957164 C747.55209548 8.47668712 747.55209548 8.47668712 748.69327712 9.00424937 C754.57589531 11.80003162 759.78230353 15.162863 764.93351149 19.14707164 C766.53180176 20.28040474 768.13617529 21.40519963 769.74601149 22.52207164 C770.99511306 23.39605601 770.99511306 23.39605601 772.26944899 24.28769664 C779.0240405 29.00204496 785.79422745 33.69268107 792.60148024 38.33066539 C800.29391763 43.57308282 807.94691579 48.83561653 815.44523024 54.35410289 C817.9857255 56.18469523 820.56956123 57.92313591 823.18351149 59.64707164 C829.25231668 63.65343131 835.21863788 67.80034668 841.18351149 71.95957164 C858.11918422 83.78713952 858.11918422 83.78713952 875.24601149 95.33457164 C879.98681975 98.47591692 884.57824227 101.7835285 889.16007399 105.15097789 C892.98280778 107.90226939 896.90659099 110.48872222 900.83585524 113.08457164 C906.86648847 117.0999239 912.79516106 121.26476648 918.74015212 125.40537242 C920.53306132 126.65363055 922.32701794 127.90037267 924.12101149 129.14707164 C925.18706618 129.88957164 926.25312087 130.63207164 927.35148024 131.39707164 C929.7770273 133.12366847 929.7770273 133.12366847 931.93351149 134.14707164 C931.93351149 134.80707164 931.93351149 135.46707164 931.93351149 136.14707164 C932.93317946 136.48158336 932.93317946 136.48158336 933.95304274 136.82285289 C937.85157964 138.55496823 941.14222361 140.88413055 944.62101149 143.33457164 C945.68448806 144.07441295 945.68448806 144.07441295 946.76944899 144.82920054 C949.82793845 146.95941896 952.87490006 149.10577548 955.92179274 151.25254039 C956.75065993 151.8364857 957.57952712 152.42043101 958.43351149 153.02207164 C959.19405837 153.5596107 959.95460524 154.09714976 960.73819899 154.65097789 C963.59549485 156.59820976 966.54338048 158.37175862 969.53507399 160.10410289 C969.99655837 160.44828258 970.45804274 160.79246226 970.93351149 161.14707164 C970.93351149 161.80707164 970.93351149 162.46707164 970.93351149 163.14707164 C971.65925368 163.40875133 972.38499587 163.67043101 973.13273024 163.94004039 C975.99751096 165.174653 978.22906495 166.62573821 980.74601149 168.45957164 C983.95790146 170.76616128 987.1814591 172.96464895 990.55851149 175.02207164 C991.67226149 175.72332164 992.78601149 176.42457164 993.93351149 177.14707164 C993.93351149 177.47707164 993.93351149 177.80707164 993.93351149 178.14707164 C906.21266904 178.19353829 818.49182376 178.23908027 702.72106337 178.27410106 C701.26983211 178.27451941 699.81860085 178.27493776 698.3673696 178.27535612 C667.90390715 178.28412467 637.44044456 178.29227476 606.97698176 178.29971067 C591.6735856 178.30344678 576.37018947 178.3073017 561.06679338 178.31126896 C558.75837118 178.31186671 556.44994899 178.31246107 554.1415268 178.31305528 C518.60599954 178.32223241 483.07047536 178.33395352 447.53495192 178.35306529 C446.77123122 178.35347599 446.00751051 178.35388668 445.22064676 178.35430982 C432.90764654 178.36094672 420.59464645 178.36779763 408.28164637 178.37467696 C372.80517601 178.39449455 337.32870803 178.41272285 301.85223269 178.42049102 C301.1222816 178.42065162 300.39233051 178.42081223 299.64025969 178.4209777 C283.61387564 178.42447545 267.58749156 178.4271598 251.56110725 178.42907459 C245.11207418 178.42985942 238.66304113 178.43076129 232.21400809 178.43170337 C231.50820113 178.43180365 230.80239417 178.43190393 230.07519911 178.43200725 C207.3553793 178.43529347 184.63557714 178.44809606 161.91576445 178.46591826 C138.38073101 178.48433499 114.8457231 178.4921095 91.31068083 178.48757577 C77.74620999 178.48529437 64.18180311 178.49137435 50.61734383 178.50946427 C41.55140125 178.52072853 32.48550046 178.52105231 23.41955498 178.51256708 C18.25704811 178.50804587 13.09466203 178.50819897 7.93216821 178.52172119 C3.22553923 178.53395522 -1.48087589 178.53209138 -6.18750199 178.51949157 C-7.86995566 178.51736791 -9.55242556 178.52015646 -11.23485849 178.52877737 C-30.58058896 178.62153415 -50.8686522 175.94052067 -69.06648851 169.14707164 C-70.01523851 168.81062633 -70.96398851 168.47418101 -71.94148851 168.12754039 C-85.3380592 163.21874794 -97.91140874 156.58779804 -110.06648851 149.14707164 C-111.09129319 148.52638804 -111.09129319 148.52638804 -112.13680101 147.89316539 C-113.81648851 146.83457164 -113.81648851 146.83457164 -116.06648851 145.14707164 C-116.06648851 144.48707164 -116.06648851 143.82707164 -116.06648851 143.14707164 C-116.61047288 142.91761851 -117.15445726 142.68816539 -117.71492601 142.45175914 C-136.51328397 132.02210538 -149.34325687 109.49531137 -155.07430101 89.65879039 C-156.80740255 82.39069336 -157.2808972 75.70847245 -156.94148851 68.27207164 C-156.90781175 67.49976207 -156.87413499 66.7274525 -156.83943773 65.93173961 C-155.87356284 51.81301045 -148.88553482 39.08222576 -138.37117601 29.75644664 C-112.04893842 9.11981237 -77.47134615 3.66380129 -45.06648851 1.14707164 C-43.96919024 1.05909354 -42.87189198 0.97111543 -41.74134225 0.88047133 C-27.83894002 -0.08640768 -13.92889787 -0.00337214 0 0 Z " fill="#6200B1" transform="translate(562.0664885072038,439.85292836185545)"/>
<path d="M0 0 C84.81 0 169.62 0 257 0 C257 177.54 257 355.08 257 538 C253.61483794 536.30741897 252.33712164 535.53351012 249.9375 532.9375 C246.25890605 529.15002589 242.26718968 525.89642112 238.16015625 522.5859375 C230.13886076 516.07552881 222.39171765 509.19922496 214.75 502.25 C210.52777227 498.4192371 206.14114806 494.82854843 201.7109375 491.2421875 C198.26101319 488.38879189 194.96302243 485.3875607 191.65234375 482.375 C185.9982347 477.31211591 180.14602785 472.47461615 174.32958984 467.60009766 C168.58639757 462.78513217 162.89452376 457.9476305 157.375 452.875 C151.46104863 447.44452494 145.27071148 442.38029287 138.9765625 437.3984375 C137.61688117 436.30686235 136.30126826 435.16059061 135 434 C135 433.34 135 432.68 135 432 C131.17982016 429.92657814 131.17982016 429.92657814 127 429 C124.67769508 430.56141351 124.67769508 430.56141351 122.4375 432.875 C118.93270845 436.20019023 115.40007343 439.35931182 111.625 442.375 C107.61173716 445.61952517 103.77584616 448.98747183 100 452.5 C95.47088963 456.7094852 90.79732484 460.67372505 85.984375 464.5546875 C78.0262136 471.07537995 70.2947176 477.88706133 62.6875 484.8125 C59.58604459 487.62782443 56.42047956 490.28979812 53.125 492.875 C48.73099743 496.33381579 44.62547515 500.05162102 40.53613281 503.85839844 C36.38561631 507.7004845 32.05410633 511.27305479 27.6484375 514.8203125 C25.02724881 516.97757399 22.50845719 519.21311 20 521.5 C6.55078125 533.72460938 6.55078125 533.72460938 0 537 C0 359.79 0 182.58 0 0 Z " fill="#6200B2" transform="translate(1184,691)"/>
</svg>
